<svg width="20" height="20" viewBox="0 0 20 20" fill="none" xmlns="http://www.w3.org/2000/svg">
<g clip-path="url(#clip0_9_936)">
<path d="M14.9999 6.66666H14.1666V4.99999C14.1666 2.69999 12.2999 0.833328 9.99992 0.833328C7.69992 0.833328 5.83325 2.69999 5.83325 4.99999V6.66666H4.99992C4.08325 6.66666 3.33325 7.41666 3.33325 8.33333V16.6667C3.33325 17.5833 4.08325 18.3333 4.99992 18.3333H14.9999C15.9166 18.3333 16.6666 17.5833 16.6666 16.6667V8.33333C16.6666 7.41666 15.9166 6.66666 14.9999 6.66666ZM9.99992 14.1667C9.08325 14.1667 8.33325 13.4167 8.33325 12.5C8.33325 11.5833 9.08325 10.8333 9.99992 10.8333C10.9166 10.8333 11.6666 11.5833 11.6666 12.5C11.6666 13.4167 10.9166 14.1667 9.99992 14.1667ZM7.49992 6.66666V4.99999C7.49992 3.61666 8.61659 2.49999 9.99992 2.49999C11.3833 2.49999 12.4999 3.61666 12.4999 4.99999V6.66666H7.49992Z" fill="white"/>
</g>
<defs>
<clipPath id="clip0_9_936">
<rect width="20" height="20" fill="white"/>
</clipPath>
</defs>
</svg>
