<svg width="28" height="28" viewBox="0 0 28 28" fill="none" xmlns="http://www.w3.org/2000/svg">
<path d="M13.9999 7C10.0566 7 6.41657 8.30667 3.4999 10.5L1.3999 7.7C4.91157 5.06333 9.2749 3.5 13.9999 3.5C18.7249 3.5 23.0882 5.06333 26.5999 7.7L24.4999 10.5C21.5832 8.30667 17.9432 7 13.9999 7ZM20.2999 12.005C17.9729 10.8274 15.3629 10.3246 12.765 10.5535C10.1671 10.7824 7.68513 11.7337 5.5999 13.3L7.6999 16.1C9.4499 14.7817 11.6316 14 13.9999 14C15.1316 14 16.2166 14.1867 17.2432 14.5133C17.8966 13.3583 18.9816 12.46 20.2999 12.005ZM9.7999 18.9L13.9999 24.5L15.1666 22.9483V20.0667C15.1666 19.25 15.4816 18.445 15.9832 17.8033C15.3402 17.6072 14.6722 17.505 13.9999 17.5C12.4249 17.5 10.9666 18.025 9.7999 18.9ZM26.8332 20.1833V24.2667C26.8332 24.9667 26.1332 25.6667 25.3166 25.6667H18.8999C18.1999 25.6667 17.4999 24.9667 17.4999 24.15V20.0667C17.4999 19.3667 18.1999 18.6667 18.8999 18.6667V16.9167C18.8999 15.2833 20.5332 14 22.1666 14C23.7999 14 25.4332 15.2833 25.4332 16.9167V18.6667C26.1332 18.6667 26.8332 19.3667 26.8332 20.1833ZM23.9166 16.9167C23.9166 15.9833 23.0999 15.4 22.1666 15.4C21.2332 15.4 20.4166 15.9833 20.4166 16.9167V18.6667H23.9166V16.9167Z" fill="white"/>
</svg>
